<?xml version="1.0" encoding="UTF-8" standalone="no"?>
<svg
   xmlns:dc="http://purl.org/dc/elements/1.1/"
   xmlns:cc="http://creativecommons.org/ns#"
   xmlns:rdf="http://www.w3.org/1999/02/22-rdf-syntax-ns#"
   xmlns:svg="http://www.w3.org/2000/svg"
   xmlns="http://www.w3.org/2000/svg"
   xmlns:sodipodi="http://sodipodi.sourceforge.net/DTD/sodipodi-0.dtd"
   xmlns:inkscape="http://www.inkscape.org/namespaces/inkscape"
   width="212"
   height="280"
   viewBox="0 0 212 280"
   fill="none"
   version="1.1"
   id="svg847"
   sodipodi:docname="glas.svg"
   inkscape:version="0.92.4 (5da689c313, 2019-01-14)">
  <metadata
     id="metadata853">
    <rdf:RDF>
      <cc:Work
         rdf:about="">
        <dc:format>image/svg+xml</dc:format>
        <dc:type
           rdf:resource="http://purl.org/dc/dcmitype/StillImage" />
        <dc:title></dc:title>
      </cc:Work>
    </rdf:RDF>
  </metadata>
  <defs
     id="defs851" />
  <sodipodi:namedview
     pagecolor="#ffffff"
     bordercolor="#666666"
     borderopacity="1"
     objecttolerance="10"
     gridtolerance="10"
     guidetolerance="10"
     inkscape:pageopacity="0"
     inkscape:pageshadow="2"
     inkscape:window-width="1920"
     inkscape:window-height="1001"
     id="namedview849"
     showgrid="false"
     inkscape:zoom="1.0467706"
     inkscape:cx="0.97992513"
     inkscape:cy="118.69155"
     inkscape:window-x="-9"
     inkscape:window-y="-9"
     inkscape:window-maximized="1"
     inkscape:current-layer="svg847" />
  <path
     d="M208.748 2.8875C207.085 1.05 204.74 0 202.255 0H9.75548C7.28798 0 4.92548 1.05 3.26298 2.8875C1.61798 4.7075 0.795475 7.1575 1.04047 9.625L27.2905 272.125C27.7455 276.605 31.508 280 36.0055 280H176.005C180.503 280 184.265 276.605 184.703 272.125L210.953 9.625C211.215 7.1575 210.41 4.7075 208.748 2.8875Z"
     fill="#ECEFF1"
     id="path845" />
  <path
     inkscape:connector-curvature="0"
     style="fill:#2196f3"
     d="m 186.49955,89.04199 -17.325,173.25 H 44.925059 L 25.500019,68.56698 c 21.87504,-7 55.12504,-11.725 81.550041,9.97501 25.54949,21 57.74949,17.15 79.44949,10.5 z"
     id="path1438" />
</svg>
